# xmcd
#
# Track frame offsets: 
#        150
#        18435
#        38090
#        58754
#        78475
#        99912
#        119460
#        140893
#        160324
#        180240
#        203169
#        223964
#        243810
#        264000
#        286006
#
# Disc length: 4093 seconds
#
# Revision: 0
# Processed by: cddbd v1.5.2PL0 Copyright (c) Steve Scherf et al.
# Submitted via: ExactAudioCopy v0.99pb4
#
DISCID=cb0ffb0f
DTITLE=Various Artist - Cash Money Records - 10 Years of Bling Vol 2
DYEAR=2008
DGENRE=Hip-Hop
TTITLE0=Lil Wayne - Way of Life (ft. Big Tymers and TQ)
TTITLE1=Birdman - What Happen To That Boy (ft. The Clipse)
TTITLE2=Big Tymers - This Is How We Do
TTITLE3=Big Tymers - Gangsta Girl (ft. R. Kelly)
TTITLE4=Lil Wayne - Go DJ
TTITLE5=Teena Marie - I'm Still In Love
TTITLE6=Birdman - Get Your Shine On (ft. Lil Wayne)
TTITLE7=Birdman - Neck of the Woods (ft. Lil Wayne)
TTITLE8=Lil Wayne - Fireman
TTITLE9=Lil Wayne - Hustler Music
TTITLE10=Lil Wayne - Shooter (ft. Robin Thicke)
TTITLE11=Currency - Where Da Cash At
TTITLE12=Birdman and Lil Wayne - Stuntin Like My Daddy
TTITLE13=Birdman - Leather So Soft
TTITLE14=Birdman and Lil Wayne - Stuntin Like My Daddy (Rock Remix)
EXTD=
EXTT0=
EXTT1=
EXTT2=
EXTT3=
EXTT4=
EXTT5=
EXTT6=
EXTT7=
EXTT8=
EXTT9=
EXTT10=
EXTT11=
EXTT12=
EXTT13=
EXTT14=
PLAYORDER=
